<svg id="visual" viewBox="0 0 900 600" width="900" height="600" xmlns="http://www.w3.org/2000/svg" xmlns:xlink="http://www.w3.org/1999/xlink" version="1.1"><rect x="0" y="0" width="900" height="600" fill="#dd9f41"></rect><path d="M0 44L7.5 41.2C15 38.3 30 32.7 45 27.3C60 22 75 17 90 19.5C105 22 120 32 135 37.5C150 43 165 44 180 42.5C195 41 210 37 225 36.7C240 36.3 255 39.7 270 41.2C285 42.7 300 42.3 315 38.2C330 34 345 26 360 26.7C375 27.3 390 36.7 405 41.3C420 46 435 46 450 44.8C465 43.7 480 41.3 495 37.5C510 33.7 525 28.3 540 24.2C555 20 570 17 585 19.7C600 22.3 615 30.7 630 35C645 39.3 660 39.7 675 40.8C690 42 705 44 720 40C735 36 750 26 765 20.8C780 15.7 795 15.3 810 18C825 20.7 840 26.3 855 29.8C870 33.3 885 34.7 892.5 35.3L900 36L900 0L892.5 0C885 0 870 0 855 0C840 0 825 0 810 0C795 0 780 0 765 0C750 0 735 0 720 0C705 0 690 0 675 0C660 0 645 0 630 0C615 0 600 0 585 0C570 0 555 0 540 0C525 0 510 0 495 0C480 0 465 0 450 0C435 0 420 0 405 0C390 0 375 0 360 0C345 0 330 0 315 0C300 0 285 0 270 0C255 0 240 0 225 0C210 0 195 0 180 0C165 0 150 0 135 0C120 0 105 0 90 0C75 0 60 0 45 0C30 0 15 0 7.5 0L0 0Z" fill="#171717" stroke-linecap="round" stroke-linejoin="miter"></path></svg>